    <svg
      xmlns="http://www.w3.org/2000/svg"
      viewBox="0 0 1162.04 1126.38"
    >
      <path d="M975.64 415.39c-7.42-30.03-16.85-59.28-33.69-85.62-11.26-17.62-24.76-33.18-42.04-45.19-2.05-1.42-4.22-2.64-6.78-4.22-.28 1.74-.48 2.7-.57 3.67-1.56 18.26-4.73 36.23-9.2 53.99-15.71 62.44-47.15 114.37-100.57 152.04-51.06 36-106.31 63.51-165.64 82.96-.45.15-.94.09-1.96.15 9.19-29.31 18.9-57.96 33.75-84.66-5.83 21.22-11.67 42.43-17.73 64.49 6.63-2.99 12.35-5.49 18.01-8.11 40.67-18.92 79.91-40.26 115.93-67.24 29.83-22.36 52.85-49.82 66.81-84.71 13.66-34.17 21.09-69.64 23.48-106.25.06-.8-.15-1.6-.31-2.98-7.55 10.31-14.97 19.92-21.83 29.91-9.51 13.86-21.4 25.29-34.63 35.54-14.97 11.61-30.65 21.75-49.29 26.47-1.16.29-2.34.52-4.46.97 1.67-1.67 2.61-2.65 3.59-3.61 11.86-11.47 23.67-22.97 35.62-34.35 2.16-2.05 2.36-3.53.76-6.11-13.32-21.38-28.92-40.97-46.62-58.8-24.28-24.48-51.54-44.79-84.27-56.75-28.71-10.5-58.45-16.64-88.85-19.5-20.92-1.97-41.92-2.57-62.83-.06-10.87 1.29-21.52 1.36-32.38-.22-27.95-4.02-55.97-7.6-83.98-11.19-2.28-.29-4.9.12-7.03 1-22.43 9.34-43.36 21.49-62.69 36.05-70.04 52.73-116.22 118.76-138.89 197.63-7.34 25.5-12.23 52.36-14.65 80.53-4.49 52.13-1.68 103.66 6.97 154.61 3.72 22 8.53 43.9 14.29 65.68.26 1 .69 1.96 1.26 3.56.96-1.83 1.6-2.91 2.1-4.07 7.29-17.18 14.96-34.2 21.77-51.56 10.01-25.53 16.3-51.76 17.02-79.14.11-3.92.09-7.85-.03-11.81-.57-17.67-.14-35.34 1.5-52.95.49-5.32 1.11-10.64 1.83-15.94 1.88-13.66 4.59-26.98 8.43-39.89 5.01-16.81 11.93-32.9 21.37-48.06 2.59-4.19 5.4-8.33 8.4-12.37 13.06-17.58 28.46-32.87 45.51-46.47 43.14-34.41 90.84-58.97 146.3-66.07 26.03-3.33 51.47-.82 75.95 9.64 59 25.19 90.87 85.72 77.8 148.32-2.96 14.12-8.37 27.35-14.52 40.32-8.71 18.36-17.47 36.71-30.25 52.78-7.76 9.74-17.15 17.25-28.83 21.51-11.39 4.15-22.88 8.16-34.52 11.52-29.06 8.39-55.18 22.17-78.45 41.41-6.4 5.29-13.12 10.28-19.03 16.1-4.75 4.66-10.33 4.81-16.74 5.6 9.68-18.69 25.86-30.62 41-44.67-8.11 0-15.22-.22-22.29.05-14.02.51-27.41 3.99-39.66 10.7-14.76 8.09-27 18.46-36.9 30.84-3.76 4.7-7.18 9.7-10.27 14.97-3.65 6.21-6.83 12.81-9.57 19.78-1.96 4.98-4.53 8.67-8.68 11.98-27.52 22.08-47.98 49.29-55.32 84.23-7.94 37.73-7.05 75.72 1.25 113.45.2.94.66 1.82.68 1.85 15.37-2.28 30.19-5.1 45.14-6.55 18.59-1.79 37.47-1.42 54.81 6 14.6 6.23 28.57 14.28 42.09 22.7 19.74 12.3 38.85 25.61 58.2 38.55 16.07 10.75 33.84 15.83 53.07 16.62 24.61 1 49.11-.09 73.5-3.24 24.1-3.11 48.12-6.78 71.37-14.12 42.54-13.41 82.19-33.2 120.89-55.03 1.26-.72 2.3-3.01 2.34-4.59.69-22.66 3.11-45.13 7.35-67.41 9.85-51.96 28.09-100.17 61.29-142.25 30.56-38.73 63.77-74.98 98.58-109.85 26.23-26.27 40.41-57.99 43.02-94.96 1.4-19.67-2.41-38.68-7.08-57.6ZM555.67 744.03c-5.21 5.63-10.48 11.19-15.94 16.57-2.05 2-3.05 3.99-3.36 6.88-2.9 27.68-12.74 52.28-32.89 72.06-11.84 11.61-26.01 19.24-41.92 23.73-23.31 6.58-46.95 9.36-70.85 4.33-8.02-1.68-16.13-4.5-23.24-8.51-21.37-12.07-27.77-31.65-24.95-54.89 2.61-21.54 5.78-25.55 25.56-34.23 19.89-8.74 40.6-11.13 62.21-9.39 31.27 2.51 61.83-1.19 90.77-14.05 25.09-11.16 40.67-30.23 46.45-57.15.4-1.85.57-3.75.96-6.38-8.08 6.03-15.28 11.73-22.82 16.94-12.97 8.94-26.2 17.9-41.98 20.68-12.54 2.22-25.39 2.53-38.11 3.7-16.39 1.51-32.9 2.34-49.17 4.76-15.91 2.36-30.16 9.41-42.74 19.58-.88.72-1.79 1.43-2.7 2.13-.09.08-.23.08-1.11.34.96-1.26 1.5-2.14 2.19-2.85 21.37-21.6 46.53-35.65 77.26-38.51 16.4-1.54 32.84-2.88 49.25-4.59 11.09-1.14 21.34-4.96 30.73-11.04 18.13-11.75 32.99-27 46.76-43.43.65-.77 1.3-1.57 1.96-2.34.15-.19.42-.28 1.14-.76.37 1.28.77 2.37.99 3.5 6.77 34.89.22 66.31-24.45 92.92Zm147.69 10.5c-4.78 17.67-15.11 32.27-27.31 45.61-3.61 3.93-7.54 7.57-11.32 11.35 11.78-45.25 18.61-90.47 3.5-137.45 7.6 3.45 13.44 7.23 18.36 12.23 19.1 19.4 23.71 42.55 16.76 68.27Zm55.97-45.67c-4.07 18.5-14.63 33.55-27.17 47.33-.12.14-.45.09-1.14.22 3.16-36.06 4.44-71.85-13.63-105.64 28.82 4.55 48.17 29.91 41.94 58.09Zm36.28-34c-3.81 8.3-8.66 16.13-13.12 24.13-.28.49-.85.82-1.8 1.68-2.64-22.65-4.59-44.91-18.07-64.63 2.76 0 4.83-.14 6.86.02 15.77 1.25 27.43 11.63 28.2 25.73.25 4.33-.28 9.19-2.07 13.07Z" />
      <path d="M830.87 788.62c.59-3.39.93-6.01 1.5-8.57 7.12-31.97 19.76-61.77 36.16-89.99 15.68-26.98 34.76-51.43 56.6-73.72 1.52-1.55 3.66-2.82 5.75-3.42 71.09-20.32 136-52.99 195.17-97.19 1.08-.8 2.21-1.54 4.24-2.95-1.26 7.61-2.19 14.16-3.44 20.64-8.48 43.86-25.04 84.65-46.99 123.4-3.59 6.34-8.36 11.27-14.3 15.61-66.44 48.56-139.46 84.11-217.28 110.23-5.54 1.86-11.05 3.78-17.4 5.96ZM750.92 238.05c-2.82-2.25-5.09-4.07-7.37-5.88-26.26-20.95-54.27-38.92-86.72-48.73-11.81-3.57-24.08-5.72-36.21-8.15-2.91-.58-4.36-1.64-5.51-4.3-14.69-33.81-30.8-66.87-52.64-96.79a465.667 465.667 0 0 0-57.84-65.41c-1.01-.95-2.05-1.87-3.38-3.1.91-.39 1.31-.71 1.73-.72 54.9-2.05 108.87 2.93 160.49 23.12 36.16 14.15 67.62 35.35 93.08 65 2.73 3.18 3.92 6.46 4.09 10.68 1.81 43.86-1.56 87.35-8.87 130.58-.17.98-.44 1.94-.85 3.71ZM590.36 172.37c-1.34.07-2.31.2-3.29.16-29.26-.95-58.24 1.86-86.99 6.97-4.51.8-6.56-.28-9.06-4.03-9.06-13.58-18.12-27.23-28.21-40.04-13.43-17.04-30.25-30.35-49.37-40.74-20.6-11.2-41.99-20.54-64.34-27.66-1.3-.42-2.59-.89-4.73-1.62 1.9-1.12 3.12-1.89 4.39-2.59 32.8-18.07 67.98-27.13 105.4-26.97 9.79.04 19.57 1.65 29.34 2.66 1.32.14 2.8.72 3.8 1.57 20.79 17.65 40.54 36.34 57.78 57.56 18.01 22.18 31.86 46.88 44.46 72.36.32.64.48 1.36.82 2.37ZM136.73 566.82c.08 1.35.21 2.71.24 4.06.48 26.39 3.25 52.54 7.71 78.55.39 2.29-.16 5.11-1.22 7.21-19.06 37.87-34.47 77.04-41.84 118.96-6.27 35.67-7.66 71.64-5.51 107.76.07 1.13.15 2.27-.39 3.68-.41-.75-.91-1.46-1.22-2.25-15.43-39.67-30.86-79.34-46.21-119.04-.71-1.83-.89-3.99-.83-5.98.41-13.79 3.59-27.11 7.45-40.24 11.31-38.55 25.66-75.88 47.96-109.55 9.43-14.24 20.56-27.35 30.9-40.99.69-.91 1.21-1.95 1.81-2.92l1.17.75ZM461.71 176.9c-9.31-2.14-17.58-4.25-25.94-5.92-37.35-7.44-75.08-9.92-112.97-6.35-32.2 3.03-62.79 12.91-92.34 25.69-16.98 7.35-33.38 16.06-50.03 24.16-.65.32-1.31.62-3.06 1.44 1.3-2.34 2.02-3.74 2.84-5.09 14.87-24.69 34.84-44.65 57.7-61.9 26.06-19.66 54.99-33.93 85.81-44.29 4.62-1.55 10.58.11 15.75 1.13 32.61 6.41 61.67 20.76 87.93 40.73 10.85 8.26 20.73 17.8 31.02 26.79.94.82 1.7 1.84 3.3 3.61ZM151.76 684.79c.76 3.25 1.29 5.74 1.93 8.19 5.9 22.5 11.86 44.98 17.66 67.5.68 2.66.96 5.55.76 8.28-1.44 19.89-3.41 39.74-4.52 59.64-1.4 25.06 1.96 49.83 7.04 74.26 5.26 25.26 11.68 50.28 17.6 75.4.37 1.59.84 3.16.54 5.13-.72-.92-1.46-1.82-2.15-2.77-22.54-31.35-45.09-62.69-67.56-94.08-1.23-1.72-2.37-3.79-2.66-5.83-1.48-10.09-3.63-20.21-3.78-30.34-.74-49.87 8.04-98.18 25.56-144.87 2.37-6.33 5.43-12.41 8.19-18.59.19-.44.57-.79 1.39-1.91ZM952.52 583.85c29.16-31.5 54.58-65.47 72.85-104.38 18.19-38.75 27.71-79.99 33.99-122.67 1 1.07 1.65 1.63 2.15 2.31 22.92 31.28 37.54 65.81 41.1 104.69q1.38 15.07-9.69 25.43c-35.83 33.58-74.78 62.81-118.75 85.01-6.27 3.16-12.78 5.85-19.19 8.73-.79.36-1.64.59-2.46.88ZM791.17 91.27c5.46 4.93 10.4 8.92 14.81 13.43 21.86 22.36 32.87 50.18 39.8 79.97 3.29 14.12 4.75 28.48 4.52 42.98-.03 1.86-.31 3.87-1.05 5.55-10.11 22.83-23.71 43.5-39.28 62.93-.23.29-.56.49-1.02.87-.38-.28-.82-.5-1.13-.84-12.51-13.49-24.97-27.03-37.56-40.46-1.55-1.65-1.85-2.93-1.08-5.02 18.72-50.67 25.31-103.02 21.72-156.78-.02-.37.07-.75.25-2.65ZM31.99 716.16c-.08-.82-.26-1.65-.23-2.46 1.87-53.63 12.87-105.22 35.47-154.03 17.27-37.3 42.11-69.07 72.58-96.54 1-.9 2.11-1.69 3.74-2.99-.12 1.84-.17 2.92-.26 4.01-2.11 25.34-4.16 50.67-6.42 76-.18 2.03-1.31 4.41-2.77 5.81-17.66 16.9-34.89 34.18-49.93 53.53-11.01 14.16-19.37 29.86-25.84 46.44-8.64 22.13-16.41 44.61-24.56 66.93-.41 1.13-.81 2.26-1.22 3.39-.19-.03-.37-.06-.56-.08ZM995.64 751.37c-47.34 55.29-104.2 97.81-171.39 126.94-.22-1.04-.49-1.74-.51-2.45-.63-19.04-.91-38.08 1.93-57.01 1.07-7.12 1-7.19 7.85-8.06 25.61-3.27 50.27-10.13 74.37-19.27 28.84-10.94 56.7-24 84.03-38.23 1.24-.64 2.48-1.27 3.72-1.91ZM570.29 1121.42c-12.86 1.14-24.47-.03-35.83-3.09-28.4-7.63-53.44-21.6-73.54-42.97-17.34-18.43-36.18-34.45-58.25-46.9-18.76-10.58-30.88-27.19-39.5-46.56-.25-.56-.36-1.17-.7-2.3 6.53 1.69 12.58 3.68 18.78 4.77 14.45 2.54 28.96 4.76 43.48 6.83 3.07.44 5.02 1.42 6.71 4.08 31.14 49.27 72.76 87.66 122.62 117.42 4.97 2.97 10.21 5.5 16.23 8.72ZM535.44 346.54c3.58 5.24 7.16 10.5 10.76 15.73 13.29 19.35 28.92 36.36 48.84 49.14 1 .64 2 2.12 2.05 3.25 1.18 28.21-3.92 54.91-19.53 78.98-.69 1.07-1.49 2.07-2.28 3.07-.22.27-.6.41-1.23.82-1.2-1.47-2.42-2.91-3.58-4.39-20.91-26.73-32.83-56.96-34.67-90.89-.91-16.69-1.04-33.41-1.48-50.12-.05-1.76.2-3.52.31-5.28.28-.11.55-.21.83-.32ZM258.87 909.51c19.75-3.92 38.62-6.29 57.7-3.25 5.08.81 10.17 2.7 14.8 5 25.77 12.75 49.08 29.44 72.52 45.91 5.5 3.86 10.9 7.87 16.34 11.81-.11.34-.23.69-.34 1.03-5.36-.58-10.76-.9-16.06-1.8-22.29-3.76-44.67-7.11-66.78-11.75-19.46-4.08-36.23-14.46-52.13-26.05-7.64-5.57-14.9-11.66-22.32-17.53-1.07-.85-2.04-1.83-3.74-3.38ZM266.84 932.79c11.19 12.49 24.62 21.63 37.8 31.12 1.56 1.12 3.01 3.21 3.35 5.06 7.63 40.85 24.44 77.27 52.12 108.49.8.91 1.51 1.9 1.89 3.27-.51-.27-1.05-.5-1.53-.81-18.99-12.29-36.27-26.57-51.02-43.8-11.37-13.28-19.17-28.6-25.64-44.67-7.22-17.94-12.61-36.44-16.53-55.37-.22-1.08-.3-2.19-.44-3.28ZM514.27 763.74c-6.1 23.64-12.81 45.97-27.25 64.8-10.06 13.12-23.94 20.87-40.27 24.1-19.3 3.81-38.66 4.79-57.77-.38-17.59-4.76-29.89-15.43-33.36-34.16-3.24-17.48 4.67-32.07 20.93-39.27 9.76-4.33 20.06-6.32 30.61-6.04 12.13.32 24.28 1.04 36.33 2.37 23.05 2.54 45.09-.88 66.4-9.74 1.14-.48 2.31-.88 4.39-1.66ZM405.7 804.72c-7.12.25-14.29.49-21.46.77-5.29.21-9.29 4.5-8.88 9.45.5 6.09 5.41 10.93 10.59 10.42 9.17-.91 19.32-11.88 19.76-20.64Z" />
    </svg>